{"title":"The Sunday NRL Footy Show - 26-6-2016","uid":15113203,"size":1068042937,"categoryP":"video","categoryS":"tv_shows","magnet":"?xt=urn:btih:d042f5baf1261d3e63ab3ced3a914fbf35fe9a38&amp;dn=The+Sunday+NRL+Footy+Show+-+26-6-2016&amp;tr=udp%3A%2F%2Ftracker.leechers-paradise.org%3A6969&amp;tr=udp%3A%2F%2Fzer0day.ch%3A1337&amp;tr=udp%3A%2F%2Fopen.demonii.com%3A1337&amp;tr=udp%3A%2F%2Ftracker.coppersurfer.tk%3A6969&amp;tr=udp%3A%2F%2Fexodus.desync.com%3A6969","seeders":3,"leechers":1,"uploader":"Bullrout","files":1,"time":1467026729,"description":"The Sunday NRL Footy Show - 26-6-2016\r\n\r\nBreaking NRL news, expert analysis, high profile guests taking you to places and people no ticket can buy. Hosted by Yvonne Sampson.\r\n\r\nComplete name : The Sunday NRL Footy Show - 26-6-2016.mkv\r\nFormat : Matroska\r\nFormat version : Version 4 / Version 2\r\nFile size : 1 019 MiB\r\nDuration : 42mn 39s\r\nOverall bit rate mode : Variable\r\nOverall bit rate : 3 338 Kbps\r\nEncoded date : UTC 2016-06-26 22:20:03\r\nWriting application : mkvmerge v9.2.0 ('Photograph') 64bit\r\nWriting library : libebml v1.3.3 + libmatroska v1.4.4\r\n\r\nVideo\r\nID : 2\r\nFormat : AVC\r\nFormat/Info : Advanced Video Codec\r\nFormat profile :   \r\nFormat settings, CABAC : Yes\r\nFormat settings, ReFrames : 3 frames\r\nCodec ID : V_MPEG4/ISO/AVC\r\nDuration : 42mn 39s\r\nBit rate mode : Variable\r\nBit rate : 2 952 Kbps\r\nMaximum bit rate : 3 000 Kbps\r\nWidth : 1 280 pixels\r\nHeight : 720 pixels\r\nDisplay aspect ratio : 16:9\r\nFrame rate mode : Constant\r\nFrame rate : 25.000 fps\r\nStandard : PAL\r\nColor space : YUV\r\nChroma subsampling : 4:2:0\r\nBit depth : 8 bits\r\nScan type : Progressive\r\nBits/(Pixel*Frame) : 0.128\r\nStream size : 901 MiB (88%)\r\nWriting library : x264 core 112\r\nDefault : Yes\r\nForced : No\r\nColor range : Limited\r\nColor primaries : BT.709\r\nTransfer characteristics : BT.709\r\nMatrix coefficients : BT.709\r\n\r\nAudio\r\nID : 1\r\nFormat : AC-3\r\nFormat/Info : Audio Coding 3\r\nMode extension : CM (complete main)\r\nFormat settings, Endianness : Big\r\nCodec ID : A_AC3\r\nDuration : 42mn 39s\r\nBit rate mode : Constant\r\nBit rate : 384 Kbps\r\nChannel(s) : 6 channels\r\nChannel positions : Front: L C R, Side: L R, LFE\r\nSampling rate : 48.0 KHz\r\nFrame rate : 31.250 fps (1536 spf)\r\nCompression mode : Lossy\r\nStream size : 117 MiB (12%)\r\nDefault : Yes\r\nForced : No","torrent":{"xt":"urn:btih:d042f5baf1261d3e63ab3ced3a914fbf35fe9a38","amp;dn":"The+Sunday+NRL+Footy+Show+-+26-6-2016","amp;tr":["udp%3A%2F%2Ftracker.leechers-paradise.org%3A6969","udp%3A%2F%2Fzer0day.ch%3A1337","udp%3A%2F%2Fopen.demonii.com%3A1337","udp%3A%2F%2Ftracker.coppersurfer.tk%3A6969","udp%3A%2F%2Fexodus.desync.com%3A6969"],"infoHash":"d042f5baf1261d3e63ab3ced3a914fbf35fe9a38","infoHashBuffer":{"type":"Buffer","data":[208,66,245,186,241,38,29,62,99,171,60,237,58,145,79,191,53,254,154,56]},"announce":[],"urlList":[]}}